<svg width="16" height="17" viewBox="0 0 16 17" fill="none" xmlns="http://www.w3.org/2000/svg">
<path d="M15.4466 6.27743C15.0246 5.79731 14.388 5.56089 13.5585 5.56089H13.3876C12.9583 5.54634 12.751 5.38994 12.6091 5.19353C12.4417 4.96438 12.3435 4.65521 12.2235 4.25147C12.2162 4.22601 12.2089 4.19691 12.198 4.16781L12.1798 4.10234C12.067 3.72407 11.9215 3.26213 11.6451 2.87295C11.605 2.81839 11.565 2.76383 11.5177 2.71291C11.1285 2.26552 10.561 2 9.74614 2H4.59139C3.54371 2 2.76158 2.67653 2.18681 3.52038C1.61204 4.36786 1.18278 5.47723 0.848107 6.54659C0.462501 7.77599 -0.0176874 9.31819 0.000501536 10.5549C0.00777711 11.1805 0.146013 11.8061 0.557083 12.2717C0.979067 12.7518 1.61568 12.9882 2.4451 12.9882H2.61607C3.04533 13.0028 3.25269 13.1592 3.39456 13.3556C3.57281 13.5993 3.67103 13.9339 3.80563 14.3776L3.82382 14.4431C3.95478 14.8759 4.12212 15.4143 4.48226 15.8326C4.8715 16.2799 5.439 16.5455 6.25386 16.5455H11.4086C12.4563 16.5455 13.2384 15.8689 13.8132 15.0251C14.388 14.1776 14.8172 13.0682 15.1519 11.9989C15.5375 10.7695 16.0177 9.22726 15.9995 7.99059C15.9922 7.36498 15.854 6.73937 15.4429 6.2738L15.4466 6.27743ZM7.42159 14.3776C7.27608 14.7668 7.13421 15.0687 6.97778 15.2833C6.83227 15.4834 6.59581 15.6434 6.25386 15.6434C5.65726 15.6434 5.35896 15.4615 5.1698 15.2433C4.95517 14.9923 4.83149 14.6432 4.69325 14.1885C4.68234 14.1558 4.67142 14.1194 4.66051 14.083C4.55865 13.7411 4.4386 13.341 4.23489 12.9955H6.90866C7.2688 12.9955 7.61803 12.9191 7.93452 12.7809C7.89814 12.8973 7.86176 13.0173 7.82902 13.1337C7.68715 13.5993 7.55983 14.0139 7.42523 14.3776H7.42159ZM9.54606 7.40863C9.29869 8.24156 9.05132 9.0745 8.80395 9.90379L8.50565 10.8968C8.29466 11.6024 7.6435 12.0825 6.90866 12.0825H5.94101C6.17019 11.8134 6.34844 11.5006 6.45394 11.1441C6.65038 10.4785 6.89775 9.64919 7.15603 8.77988L7.49435 7.65596C7.70534 6.95033 8.3565 6.47021 9.09134 6.47021H10.0517C9.82253 6.73937 9.64792 7.05581 9.54606 7.40863ZM9.09134 5.56089C8.72756 5.56089 8.38197 5.63727 8.06184 5.77549C8.08731 5.68819 8.11641 5.6009 8.14187 5.51361L8.17098 5.42267C8.31285 4.9571 8.44017 4.54245 8.57477 4.17873C8.72028 3.78954 8.86216 3.48764 9.01858 3.27305C9.09134 3.17484 9.18592 3.08391 9.30597 3.01844C9.42601 2.95297 9.57153 2.91296 9.7425 2.91296C10.1208 2.91296 10.3791 2.9857 10.5646 3.09482C10.6738 3.15665 10.7574 3.23304 10.8266 3.31306C11.0412 3.56403 11.1649 3.91321 11.3031 4.36786C11.314 4.4006 11.3249 4.43697 11.3359 4.47335C11.4377 4.81525 11.5578 5.21535 11.7615 5.56089H9.0877H9.09134Z" fill="#FFF6F0"/>
</svg>
